<svg width="64" height="64" viewBox="0 0 64 64" fill="none" xmlns="http://www.w3.org/2000/svg">
<rect width="64" height="64" fill="#D1D1D1"/>
<path d="M32 34.375C38.3413 34.375 51 37.5575 51 43.875V51H13V43.875C13 37.5575 25.6587 34.375 32 34.375ZM32 13C34.5196 13 36.9359 14.0009 38.7175 15.7825C40.4991 17.5641 41.5 19.9804 41.5 22.5C41.5 25.0196 40.4991 27.4359 38.7175 29.2175C36.9359 30.9991 34.5196 32 32 32C29.4804 32 27.0641 30.9991 25.2825 29.2175C23.5009 27.4359 22.5 25.0196 22.5 22.5C22.5 19.9804 23.5009 17.5641 25.2825 15.7825C27.0641 14.0009 29.4804 13 32 13ZM32 38.8875C24.9462 38.8875 17.5125 42.355 17.5125 43.875V46.4875H46.4875V43.875C46.4875 42.355 39.0538 38.8875 32 38.8875ZM32 17.5125C30.6772 17.5125 29.4086 18.038 28.4733 18.9733C27.538 19.9086 27.0125 21.1772 27.0125 22.5C27.0125 23.8228 27.538 25.0914 28.4733 26.0267C29.4086 26.962 30.6772 27.4875 32 27.4875C33.3228 27.4875 34.5914 26.962 35.5267 26.0267C36.462 25.0914 36.9875 23.8228 36.9875 22.5C36.9875 21.1772 36.462 19.9086 35.5267 18.9733C34.5914 18.038 33.3228 17.5125 32 17.5125Z" fill="white"/>
</svg>
